<svg width="20" height="20" viewBox="0 0 20 20" fill="none" xmlns="http://www.w3.org/2000/svg">
<path d="M18.3333 5.00008V7.01675C18.3333 8.33341 17.5 9.16675 16.1833 9.16675H13.3333V3.34175C13.3333 2.41675 14.0916 1.66675 15.0166 1.66675C15.925 1.67508 16.7583 2.04175 17.3583 2.64175C17.9583 3.25008 18.3333 4.08341 18.3333 5.00008Z" stroke="#EB6B9F" stroke-width="1.5" stroke-miterlimit="10" stroke-linecap="round" stroke-linejoin="round"/>
<path d="M1.66669 5.83341V17.5001C1.66669 18.1917 2.45002 18.5834 3.00002 18.1668L4.42502 17.1001C4.75835 16.8501 5.22502 16.8834 5.52502 17.1834L6.90835 18.5751C7.23335 18.9001 7.76669 18.9001 8.09169 18.5751L9.49169 17.1751C9.78335 16.8834 10.25 16.8501 10.575 17.1001L12 18.1668C12.55 18.5751 13.3334 18.1834 13.3334 17.5001V3.33341C13.3334 2.41675 14.0834 1.66675 15 1.66675H5.83335H5.00002C2.50002 1.66675 1.66669 3.15841 1.66669 5.00008V5.83341Z" stroke="#EB6B9F" stroke-width="1.5" stroke-miterlimit="10" stroke-linecap="round" stroke-linejoin="round"/>
<path d="M7.5 10.8416H10" stroke="#EB6B9F" stroke-width="1.5" stroke-linecap="round" stroke-linejoin="round"/>
<path d="M7.5 7.5083H10" stroke="#EB6B9F" stroke-width="1.5" stroke-linecap="round" stroke-linejoin="round"/>
<path d="M4.99634 10.8333H5.00382" stroke="#EB6B9F" stroke-width="2" stroke-linecap="round" stroke-linejoin="round"/>
<path d="M4.99634 7.5H5.00382" stroke="#EB6B9F" stroke-width="2" stroke-linecap="round" stroke-linejoin="round"/>
</svg>
